# xmcd
#
# Track frame offsets:
#	150
#	22275
#	54375
#	79112
#	107125
#	136710
#	161412
#	182437
#	213350
#	236975
#	266650
#	286235
#	313242
#
# Disc length: 4557 seconds
#
# Revision: 0
# Processed by: cddbd v1.5.1PL0 Copyright (c) Steve Scherf et al.
# Submitted via: EasyCDDAExtractor 7.1.2.1
#
DISCID=b711cb0d
DTITLE=The Reese Project - Faith Hope and Clarity - The Remixes
DYEAR=1993
DGENRE=House
TTITLE0=Free at Last (Groove Corporation Mix)
TTITLE1=Miracle of Life (Big Bump Mix)
TTITLE2=Direct Me (Underground Resistance Mix)
TTITLE3=The Colour of Love (Groove Corporation Mix)
TTITLE4=The Colour of Love (MK Mik)
TTITLE5=I Believe (Reese Club Mantra Mix)
TTITLE6=I Believe (Carl Craig B-Dub Mix)
TTITLE7=Human (Tony Humphries Club Mix)
TTITLE8=Human (Tony Humphries Dub)
TTITLE9=Pressure of Life (Groove Corportation Mix)
TTITLE10=So Deep (Joey Negro Fruit Mix)
TTITLE11=So Deep (CJ Mackintosh Classic Club Mix)
TTITLE12=Sacrifice (Love Revolution Mix)
EXTD=
EXTT0=
EXTT1=
EXTT2=
EXTT3=
EXTT4=
EXTT5=
EXTT6=
EXTT7=
EXTT8=
EXTT9=
EXTT10=
EXTT11=
EXTT12=
PLAYORDER=
